<svg width="2554" height="1682" xmlns="http://www.w3.org/2000/svg" xmlns:xlink="http://www.w3.org/1999/xlink" overflow="hidden"><defs><clipPath id="clip0"><rect x="572" y="346" width="2554" height="1682"/></clipPath><clipPath id="clip1"><rect x="1444" y="346" width="1683" height="1683"/></clipPath><clipPath id="clip2"><rect x="1444" y="346" width="1683" height="1683"/></clipPath><clipPath id="clip3"><rect x="1444" y="346" width="1683" height="1683"/></clipPath></defs><g clip-path="url(#clip0)" transform="translate(-572 -346)"><g clip-path="url(#clip1)"><g clip-path="url(#clip2)"><g clip-path="url(#clip3)"><path d="M2814.13 1185.25C2808.87 1185.25 2801.86 1185.25 2796.61 1185.25 2796.61 1185.25 2796.61 1185.25 2796.61 1185.25 2796.61 1099.4 2754.56 1020.55 2686.23 971.494 2616.14 922.436 2526.79 910.171 2446.19 938.204 2379.61 808.55 2232.44 741.971 2092.27 775.26 1952.1 808.55 1850.48 934.7 1850.48 1080.12 1850.48 1080.12 1850.48 1081.88 1850.48 1083.63 1754.12 1067.86 1657.75 1108.16 1598.18 1185.25 1540.36 1264.09 1529.85 1367.46 1570.15 1455.07 1612.2 1542.67 1699.8 1600.49 1796.17 1605.75L1796.17 1607.5 2812.38 1607.5C2928.01 1607.5 3022.63 1512.89 3022.63 1397.25 3022.63 1281.61 2929.77 1185.25 2814.13 1185.25Z" stroke="#DAE3F3" stroke-width="17.5208" fill="#1F4E79" fill-opacity="0.94"/></g></g></g><text fill="#FFFFFF" font-family="Calibri,Calibri_MSFontService,sans-serif" font-weight="700" font-size="435" transform="matrix(1 0 0 1 1914.22 1454)">POS<tspan x="-1075.54" y="-9">non</tspan></text></g></svg>